<svg id="svg8" height="512" viewBox="0 0 25.399999 25.399999" width="512" xmlns="http://www.w3.org/2000/svg" xmlns:svg="http://www.w3.org/2000/svg"><g id="layer2"><path id="rect837" d="m38 6c-17.649422-.0000004-32.0081899 14.34946-32 32 .0032122 6.9312 2.2719448 13.67024 6.439453 19.203125a2.0002 2.0002 0 1 0 3.195313-2.40625c-3.648316-4.843589-5.631958-10.737377-5.634766-16.796875-.0071856-15.48654 12.512338-28.0000008 28-28 15.487662-.0000008 28 12.512338 28 28s-12.513007 28.004301-28 28c-4.552978-.001266-9.037397-1.121939-13.064453-3.253906a2.0002 2.0002 0 1 0 -1.871094 3.535156c4.600114 2.43535 9.726948 3.717306 14.935547 3.71875 8.106667.002257 15.512592-3.03132 21.15625-8.015625l3.263672 3.261719c-1.79785 3.064846-1.39651 7.093728 1.224609 9.714844l12.730469 12.730468c3.109433 3.109437 8.203067 3.105602 11.3125-.003906 3.109436-3.109433 3.115224-8.203067.005859-11.3125l-12.732421-12.730469c-2.621116-2.621119-6.649998-3.022459-9.714844-1.224609l-3.261719-3.263672c4.983428-5.644287 8.015627-13.05019 8.015625-21.15625.000004-17.649422-14.350577-32.0000004-32-32zm.001953 7.988281a2.0002 2.0002 0 1 0 0 4c8.47558 0 16.600129 6.536681 19.15625 14.615235a2.0002 2.0002 0 1 0 3.8125-1.207032c-3.090667-9.767966-12.49781-17.408203-22.96875-17.408203zm21.998047 22.011719a2 2 0 0 0 -2 2 2 2 0 0 0 2 2 2 2 0 0 0 2-2 2 2 0 0 0 -2-2zm9.302734 29.28125c1.016709 0 2.034373.397654 2.830078 1.193359l12.730469 12.730469c1.591408 1.591412 1.585624 4.060936-.005859 5.652344-1.591408 1.591412-4.060932 1.597195-5.652344.005859l-12.730469-12.730469c-1.591411-1.591411-1.591411-4.066791 0-5.658203.795706-.795705 1.811416-1.193359 2.828125-1.193359z" fill-rule="evenodd" transform="scale(.265)" font-variant-ligatures="normal" font-variant-position="normal" font-variant-caps="normal" font-variant-numeric="normal" font-variant-alternates="normal" font-feature-settings="normal" text-indent="0" text-align="start" text-decoration-line="none" text-decoration-style="solid" text-decoration-color="rgb(0,0,0)" text-transform="none" text-orientation="mixed" white-space="normal" shape-padding="0" isolation="auto" mix-blend-mode="normal" solid-color="rgb(0,0,0)" solid-opacity="1" vector-effect="none" paint-order="stroke fill markers"/></g></svg>