<svg id="Layer_1" enable-background="new 0 0 512 512" height="512" viewBox="0 0 512 512" width="512" xmlns="http://www.w3.org/2000/svg"><path d="m463.116 191.907-174.911-160.786h.001c-18.361-16.879-46.052-16.879-64.411 0l-174.911 160.786c-14.548 13.372-19.311 33.908-12.134 52.317s24.58 30.305 44.339 30.305h7.16v171.421c0 26.24 22.481 47.589 50.114 47.589h73.887c6.903 0 12.5-5.597 12.5-12.5v-145.41c0-6.341 5.159-11.5 11.5-11.5h39.5c6.341 0 11.5 5.159 11.5 11.5v145.41c0 6.903 5.597 12.5 12.5 12.5h73.888c27.633 0 50.113-21.349 50.113-47.589v-171.421h7.16c19.76 0 37.164-11.896 44.339-30.305 7.177-18.409 2.414-38.945-12.134-52.317zm-11.159 43.238c-3.511 9.007-11.378 14.384-21.046 14.384h-19.66c-6.903 0-12.5 5.597-12.5 12.5v183.921c0 12.456-11.266 22.589-25.113 22.589h-61.388v-132.91c0-20.126-16.374-36.5-36.5-36.5h-39.5c-20.126 0-36.5 16.374-36.5 36.5v132.91h-61.387c-13.848 0-25.114-10.133-25.114-22.589v-183.921c0-6.903-5.597-12.5-12.5-12.5h-19.66c-9.667 0-17.535-5.377-21.046-14.385-3.512-9.007-1.358-18.29 5.759-24.833l174.912-160.786c8.715-8.012 21.857-8.012 30.572 0h.001l174.91 160.786c7.118 6.543 9.272 15.826 5.76 24.834z"/></svg>