<svg id="Layer_1" enable-background="new 0 0 124 124" height="512" viewBox="0 0 124 124" width="512" xmlns="http://www.w3.org/2000/svg"><path d="m102.648 3.787c-1.744-.268-3.387-.527-4.963-.775-11.01-1.738-18.965-2.993-35.317-3.012-16.796-.012-24.966 1.269-36.3 3.051-1.503.236-3.066.482-4.716.735-3.681.566-6.352 3.564-6.352 7.128v82.275c0 10.316 8.888 18.709 19.812 18.709h18.116v10.102c0 1.104.896 2 2 2h14.143c1.104 0 2-.896 2-2v-10.102h19.314c10.264 0 18.614-7.889 18.614-17.585v-83.399c.001-3.564-2.67-6.562-6.351-7.127zm-35.577 116.213h-10.142v-8.102h10.143v8.102zm37.929-25.687c0 7.491-6.556 13.585-14.614 13.585h-55.573c-8.719 0-15.812-6.599-15.812-14.709v-82.275c0-1.576 1.245-2.91 2.959-3.173 1.655-.254 3.222-.501 4.73-.738 11.073-1.742 19.095-3.003 35.32-3.003h.353c16.042.018 23.868 1.253 34.699 2.962 1.8.284 3.792.369 5.533.905 1.34.413 2.405 1.604 2.405 3.047z"/><path d="m52.207 79.606h-20.38c-1.104 0-2 .896-2 2v11.44c0 1.104.896 2 2 2h20.379c1.104 0 2-.896 2-2v-11.44c.001-1.104-.895-2-1.999-2zm-2 11.44h-16.38v-7.44h16.379v7.44z"/><path d="m92.173 79.606h-20.38c-1.104 0-2 .896-2 2v11.44c0 1.104.896 2 2 2h20.379c1.104 0 2-.896 2-2v-11.44c.001-1.104-.895-2-1.999-2zm-2 11.44h-16.38v-7.44h16.379v7.44z"/><path d="m92.173 18.94h-60.346c-1.104 0-2 .896-2 2v43.593c0 1.104.896 2 2 2h60.346c1.104 0 2-.896 2-2v-43.593c0-1.104-.896-2-2-2zm-2 43.593h-56.346v-39.593h56.346z"/><path d="m62 52.611c2.641 0 5.002-1.362 6.316-3.645 1.305-2.267 1.3-4.971-.014-7.234l-4.573-7.874c-.358-.616-1.017-.996-1.729-.996s-1.372.379-1.729.996l-4.573 7.874c-1.314 2.263-1.319 4.967-.014 7.234 1.314 2.283 3.675 3.645 6.316 3.645zm-2.843-8.87 2.843-4.896 2.843 4.896c.586 1.01.589 2.217.006 3.229-.591 1.027-1.657 1.64-2.85 1.64s-2.258-.613-2.85-1.64c-.581-1.011-.579-2.218.008-3.229z"/></svg>