<svg id="Layer_2" height="512" viewBox="0 0 24 24" width="512" xmlns="http://www.w3.org/2000/svg" data-name="Layer 2"><path d="m19.5 23.5a1.5017 1.5017 0 0 0 1.5-1.5v-20a1.5017 1.5017 0 0 0 -1.5-1.5h-15a1.5017 1.5017 0 0 0 -1.5 1.5v20a1.5017 1.5017 0 0 0 1.5 1.5zm-15.5-1.5v-20a.5.5 0 0 1 .5-.5h15a.5.5 0 0 1 .5.5v20a.5.5 0 0 1 -.5.5h-15a.5.5 0 0 1 -.5-.5z"/><path d="m11.5 15.5a5.5056 5.5056 0 0 0 5.4747-5h.5253a.5.5 0 0 0 .5-.5 6.5075 6.5075 0 0 0 -6.5-6.5.5.5 0 0 0 -.5.5v.5253a5.4987 5.4987 0 0 0 .5 10.9747zm.5-10.9775a5.5088 5.5088 0 0 1 4.9775 4.9775h-4.9775zm-1 1.0053v4.4722a.5.5 0 0 0 .5.5h4.4722a4.5 4.5 0 1 1 -4.9722-4.9722z"/><path d="m8 17.5h4a.5.5 0 0 0 0-1h-4a.5.5 0 0 0 0 1z"/><path d="m16 18.5h-8a.5.5 0 0 0 0 1h8a.5.5 0 0 0 0-1z"/></svg>