<?xml version="1.0" standalone="no"?>
<!DOCTYPE svg PUBLIC "-//W3C//DTD SVG 20010904//EN"
 "http://www.w3.org/TR/2001/REC-SVG-20010904/DTD/svg10.dtd">
<svg version="1.0" xmlns="http://www.w3.org/2000/svg"
 width="263.000000pt" height="120.000000pt" viewBox="0 0 263.000000 120.000000"
 preserveAspectRatio="xMidYMid meet">

<g transform="translate(0.000000,120.000000) scale(0.100000,-0.100000)"
fill="#000000" stroke="none">
<path d="M767 984 c-4 -4 -7 -148 -7 -320 0 -292 1 -314 18 -323 41 -22 42 -9
40 325 -3 313 -3 319 -23 322 -12 2 -24 0 -28 -4z"/>
<path d="M1477 984 c-4 -4 -7 -148 -7 -320 0 -306 0 -314 21 -324 18 -10 30
-1 110 76 l89 88 89 -88 c80 -77 92 -86 110 -76 12 6 21 16 21 22 0 6 -39 50
-87 99 l-86 89 87 90 c48 50 86 96 84 102 -2 6 -12 16 -21 22 -14 9 -42 -15
-175 -147 -86 -86 -163 -157 -169 -157 -10 0 -13 64 -15 263 -3 255 -4 262
-23 265 -12 2 -24 0 -28 -4z"/>
<path d="M356 756 c-117 -44 -172 -194 -112 -306 57 -107 205 -149 301 -86 37
24 45 20 45 -26 0 -81 -57 -149 -137 -164 -27 -5 -47 0 -95 25 -47 24 -64 28
-74 20 -22 -18 -16 -36 19 -62 94 -70 219 -59 294 27 50 56 54 87 51 346 -3
223 -4 235 -22 235 -15 0 -31 -16 -42 -43 -1 -2 -18 7 -38 19 -46 27 -138 34
-190 15z m163 -75 c67 -47 88 -128 52 -200 -27 -52 -72 -81 -129 -81 -60 0
-103 23 -135 72 -41 63 -31 144 23 193 49 44 139 52 189 16z"/>
<path d="M937 764 c-4 -4 -7 -64 -7 -134 0 -115 2 -131 25 -177 45 -90 142
-134 245 -112 27 6 54 17 61 25 15 18 39 18 39 -1 0 -24 36 -37 54 -19 24 23
24 395 0 415 -11 9 -20 10 -32 2 -14 -8 -18 -33 -22 -139 -6 -143 -19 -177
-82 -210 -41 -21 -125 -15 -160 12 -53 39 -63 69 -68 209 -5 121 -6 130 -25
133 -12 2 -24 0 -28 -4z"/>
<path d="M2126 755 c-159 -56 -186 -285 -44 -381 146 -99 338 1 338 175 0 157
-146 259 -294 206z m155 -71 c41 -21 72 -71 76 -123 8 -87 -65 -161 -159 -161
-56 0 -102 28 -128 79 -23 47 -25 89 -6 134 36 86 130 116 217 71z"/>
</g>
</svg>
