<?xml version="1.0" standalone="no"?>
<!DOCTYPE svg PUBLIC "-//W3C//DTD SVG 20010904//EN"
 "http://www.w3.org/TR/2001/REC-SVG-20010904/DTD/svg10.dtd">
<svg version="1.0" xmlns="http://www.w3.org/2000/svg"
 width="263.000000pt" height="278.000000pt" viewBox="0 0 263.000000 278.000000"
 preserveAspectRatio="xMidYMid meet">

<g transform="translate(0.000000,278.000000) scale(0.100000,-0.100000)"
fill="#000000" stroke="none">
<path d="M1110 2665 c-210 -37 -356 -99 -520 -219 -256 -189 -443 -489 -491
-791 -16 -104 -16 -319 0 -420 40 -248 177 -507 360 -683 l45 -43 -55 -57
c-86 -88 -189 -223 -189 -245 0 -5 278 -6 618 -4 660 4 669 5 832 58 423 139
768 540 829 964 21 147 23 239 7 372 -35 291 -149 520 -370 738 -192 190 -398
292 -678 334 -170 26 -219 26 -388 -4z m388 -620 c44 -14 101 -37 128 -52 71
-40 190 -158 234 -232 62 -105 84 -187 85 -316 0 -186 -53 -315 -184 -445
-134 -133 -260 -185 -446 -185 -90 0 -123 5 -180 24 -108 37 -173 78 -256 160
-82 83 -123 149 -160 256 -33 98 -34 268 -1 370 43 138 147 273 268 351 146
93 349 120 512 69z"/>
</g>
</svg>
